<?xml version="1.0" standalone="no"?>
<!DOCTYPE svg PUBLIC "-//W3C//DTD SVG 20010904//EN"
 "http://www.w3.org/TR/2001/REC-SVG-20010904/DTD/svg10.dtd">
<svg version="1.0" xmlns="http://www.w3.org/2000/svg"
 width="260.000000pt" height="260.000000pt" viewBox="0 0 260.000000 260.000000"
 preserveAspectRatio="xMidYMid meet">
<metadata>
Created by potrace 1.11, written by Peter Selinger 2001-2013
</metadata>
<g transform="translate(0.000000,260.000000) scale(0.100000,-0.100000)"
fill="#000000" stroke="none">
<path d="M2140 2097 c0 -5 -5 -5 -10 -2 -6 3 -13 -1 -16 -9 -3 -9 -10 -13 -15
-10 -5 3 -9 -2 -9 -10 0 -9 -4 -16 -10 -16 -5 0 -7 -36 -4 -92 9 -186 10 -233
3 -243 -14 -20 2 -382 18 -408 3 -6 2 -7 -3 -4 -6 3 -16 -4 -24 -16 -12 -20
-12 -21 3 -8 10 7 17 9 17 4 0 -13 -42 -31 -58 -26 -6 3 -9 10 -5 16 4 7 0 8
-11 4 -9 -4 -15 -3 -13 1 6 9 -19 33 -27 25 -3 -4 -6 0 -6 9 0 8 -9 23 -20 33
-11 10 -20 24 -20 32 0 7 -4 13 -10 13 -5 0 -10 7 -10 15 0 8 -4 15 -10 15 -5
0 -10 5 -10 11 0 11 -30 55 -67 95 -12 13 -19 24 -16 24 4 0 -3 9 -15 20 -12
12 -22 24 -22 28 0 4 -11 20 -25 35 -14 15 -23 27 -20 27 3 0 -3 9 -12 20 -10
11 -26 29 -35 40 -10 11 -18 24 -18 29 0 5 -6 16 -13 23 -7 7 -28 35 -47 63
-43 60 -96 116 -104 108 -3 -4 -6 -1 -6 4 0 6 -11 10 -25 8 -14 -1 -28 2 -31
7 -3 4 -11 5 -17 1 -7 -4 -22 -8 -34 -9 -12 0 -30 -7 -40 -15 -15 -12 -16 -12
-8 1 5 8 -6 2 -25 -14 -19 -16 -34 -33 -33 -38 2 -4 -1 -8 -5 -8 -5 0 -10 -8
-11 -17 -5 -44 -2 -233 4 -283 11 -88 16 -141 17 -197 1 -29 5 -53 8 -53 3 0
6 -9 6 -20 0 -11 -3 -20 -6 -20 -11 0 -15 -284 -5 -365 13 -113 16 -142 17
-187 1 -26 4 -45 8 -43 4 3 6 -9 4 -25 -2 -16 2 -32 8 -36 7 -5 8 -3 3 6 -6 9
-4 11 4 6 7 -5 10 -15 7 -23 -3 -8 -1 -11 4 -8 6 3 10 1 10 -5 0 -6 5 -8 10
-5 6 3 10 2 10 -3 0 -10 75 -10 85 0 4 4 13 4 21 1 8 -3 14 0 14 7 0 6 4 8 10
5 5 -3 19 9 30 27 18 29 20 43 15 123 -3 50 -8 106 -11 125 -6 47 -6 172 1
240 3 30 5 61 5 68 0 6 0 19 0 27 0 8 0 22 0 30 0 43 -4 75 -9 75 -3 0 -6 15
-6 34 0 19 3 32 6 30 4 -2 10 3 13 12 4 10 2 13 -7 9 -6 -4 -3 1 7 9 12 9 28
13 39 10 22 -7 87 -71 87 -85 0 -5 5 -9 12 -9 6 0 8 -3 5 -6 -6 -6 9 -28 56
-84 6 -8 11 -18 10 -22 -2 -5 2 -8 7 -8 6 0 10 -6 10 -13 0 -7 9 -19 19 -27
11 -7 18 -17 16 -21 -3 -4 2 -9 10 -13 8 -3 15 -12 15 -20 0 -7 7 -16 15 -20
8 -3 15 -12 15 -20 0 -8 10 -23 23 -33 12 -10 23 -25 25 -33 2 -8 12 -23 23
-33 10 -10 19 -21 19 -25 0 -4 14 -23 30 -42 16 -19 35 -41 40 -47 6 -7 8 -13
4 -13 -4 0 3 -8 14 -19 12 -10 22 -22 22 -27 0 -12 37 -44 50 -44 6 0 10 -5
10 -11 0 -5 4 -8 9 -4 5 3 12 1 15 -3 10 -17 135 1 148 21 4 7 8 8 8 4 0 -15
50 42 53 60 1 10 5 23 9 28 11 17 1 225 -18 375 -3 30 -7 74 -7 97 0 24 -4 40
-10 36 -5 -3 -4 3 1 14 7 12 7 24 0 37 -8 13 -7 17 0 12 8 -5 10 6 7 33 -2 22
1 43 7 47 7 4 6 9 -3 15 -8 5 -9 9 -4 9 10 0 11 150 1 240 -16 144 -27 233
-29 250 -4 24 -31 60 -44 60 -7 0 -13 4 -13 9 0 6 -25 9 -55 8 -30 -1 -55 -6
-55 -10z"/>
<path d="M764 1948 c-3 -5 -9 -6 -14 -3 -5 3 -25 -1 -45 -9 -19 -8 -35 -12
-35 -9 0 3 -8 -1 -18 -10 -10 -10 -22 -14 -25 -10 -4 3 -7 1 -7 -6 0 -7 -4 -9
-10 -6 -5 3 -10 1 -10 -5 0 -6 -4 -8 -10 -5 -5 3 -10 1 -10 -4 0 -6 -7 -11
-15 -11 -8 0 -15 -5 -15 -12 0 -6 -3 -8 -6 -5 -4 4 -15 -3 -25 -15 -11 -11
-19 -18 -19 -15 0 4 -27 -19 -59 -51 -32 -31 -57 -60 -54 -64 2 -5 -1 -8 -7
-8 -5 0 -18 -16 -27 -35 -9 -19 -21 -35 -26 -35 -5 0 -7 -6 -4 -14 3 -8 -1
-20 -8 -26 -8 -7 -12 -16 -9 -21 3 -5 0 -9 -6 -9 -6 0 -9 -4 -6 -8 3 -5 -1
-19 -8 -33 -7 -13 -11 -30 -8 -37 2 -6 0 -12 -5 -12 -6 0 -10 -6 -11 -12 -2
-25 -11 -83 -16 -108 -15 -68 -19 -110 -18 -165 1 -69 9 -170 12 -170 1 0 4
-18 5 -40 2 -22 4 -40 5 -40 1 0 4 -13 6 -30 3 -30 11 -68 14 -72 2 -2 4 -7 5
-13 1 -5 4 -12 5 -15 1 -3 3 -9 4 -14 0 -5 13 -27 28 -50 15 -23 22 -39 15
-35 -10 6 17 -32 34 -46 3 -3 9 -14 12 -24 4 -10 10 -17 13 -14 2 3 21 -10 42
-29 20 -19 49 -37 65 -40 15 -3 27 -10 27 -15 0 -5 4 -7 9 -3 5 3 13 0 16 -6
4 -5 13 -8 21 -5 7 3 16 1 18 -3 5 -7 153 -6 201 2 74 12 105 21 105 29 0 5 4
7 9 3 5 -3 16 2 25 11 9 8 20 12 26 9 5 -3 10 -1 10 5 0 6 5 8 10 5 6 -3 10
-1 10 4 0 6 3 10 8 10 14 -3 72 23 72 32 0 5 6 8 13 6 6 -1 11 4 10 10 -2 7 3
12 10 10 6 -1 11 4 10 11 -2 6 2 12 8 12 5 0 8 4 4 9 -3 5 -1 12 4 15 13 9 8
60 -9 85 -17 25 -68 35 -89 17 -11 -8 -13 -8 -7 1 8 14 -55 -16 -66 -32 -4 -5
-8 -6 -8 -1 0 5 -6 3 -13 -3 -8 -6 -17 -8 -20 -4 -4 3 -7 0 -7 -7 0 -7 -3 -10
-7 -7 -3 4 -15 -1 -26 -10 -12 -11 -17 -12 -12 -4 6 10 4 12 -6 5 -18 -11 -79
-13 -85 -2 -3 5 -10 6 -15 3 -5 -4 -9 -1 -9 5 0 6 -4 8 -10 5 -5 -3 -10 -1
-10 5 0 6 -5 8 -10 5 -6 -3 -13 1 -16 9 -3 9 -10 16 -14 16 -14 0 -67 55 -74
78 -4 12 -12 22 -18 22 -6 0 -8 3 -5 7 4 3 -1 12 -11 20 -10 9 -11 11 -2 7 12
-7 13 -5 3 8 -13 15 -32 96 -38 158 -2 19 -4 35 -5 35 -1 0 -3 20 -4 45 -1 25
-4 50 -8 56 -6 9 -4 49 3 49 1 0 3 14 4 30 1 17 6 44 9 60 12 51 17 79 19 103
0 12 5 22 10 22 5 0 7 7 4 15 -4 8 -2 17 4 20 5 4 7 11 4 16 -4 5 -1 9 5 9 6
0 8 5 5 10 -3 6 -1 10 4 10 6 0 10 3 9 8 -3 11 23 55 44 74 11 9 19 19 19 22
-1 4 15 21 36 39 20 17 34 26 29 20 -5 -9 -2 -11 8 -7 9 3 14 9 12 13 -2 3 11
6 30 7 19 0 34 -2 34 -6 0 -4 7 -7 15 -8 8 -1 22 -3 30 -4 8 -1 15 -5 15 -10
0 -4 9 -8 20 -8 11 0 20 -4 20 -9 0 -9 11 -8 60 4 8 2 18 4 21 4 3 1 22 16 42
35 20 18 38 32 41 29 7 -8 20 41 17 67 -2 14 -9 29 -17 33 -8 5 -11 14 -8 20
4 7 4 9 0 5 -4 -3 -19 3 -33 15 -13 12 -30 22 -36 22 -7 1 -23 7 -36 14 -18
10 -22 10 -16 0 6 -9 4 -10 -6 -3 -18 11 -168 13 -175 2z"/>
</g>
</svg>
