<?xml version="1.0" encoding="UTF-8" standalone="no"?>
<!-- Created with Inkscape (http://www.inkscape.org/) -->

<svg
   xmlns:dc="http://purl.org/dc/elements/1.1/"
   xmlns:cc="http://creativecommons.org/ns#"
   xmlns:rdf="http://www.w3.org/1999/02/22-rdf-syntax-ns#"
   xmlns:svg="http://www.w3.org/2000/svg"
   xmlns="http://www.w3.org/2000/svg"
   xmlns:sodipodi="http://sodipodi.sourceforge.net/DTD/sodipodi-0.dtd"
   xmlns:inkscape="http://www.inkscape.org/namespaces/inkscape"
   width="189.69696mm"
   height="52.722462mm"
   viewBox="0 0 189.69696 52.722462"
   version="1.1"
   id="svg8"
   inkscape:version="0.92.3 (2405546, 2018-03-11)"
   sodipodi:docname="logo-vector.svg">
  <defs
     id="defs2" />
  <sodipodi:namedview
     id="base"
     pagecolor="#ffffff"
     bordercolor="#666666"
     borderopacity="1.0"
     inkscape:pageopacity="0.0"
     inkscape:pageshadow="2"
     inkscape:zoom="0.70710678"
     inkscape:cx="683.74021"
     inkscape:cy="110.51354"
     inkscape:document-units="mm"
     inkscape:current-layer="layer1"
     showgrid="false"
     inkscape:window-width="1920"
     inkscape:window-height="1001"
     inkscape:window-x="-9"
     inkscape:window-y="-9"
     inkscape:window-maximized="1"
     fit-margin-top="0"
     fit-margin-left="0"
     fit-margin-right="0"
     fit-margin-bottom="0" />
  <metadata
     id="metadata5">
    <rdf:RDF>
      <cc:Work
         rdf:about="">
        <dc:format>image/svg+xml</dc:format>
        <dc:type
           rdf:resource="http://purl.org/dc/dcmitype/StillImage" />
        <dc:title></dc:title>
      </cc:Work>
    </rdf:RDF>
  </metadata>
  <g
     inkscape:label="Capa 1"
     inkscape:groupmode="layer"
     id="layer1"
     transform="translate(-9.240927,-106.6374)">
    <path
       style="fill:#e3dedb;stroke-width:0.06939831"
       d="m 64.350099,158.89142 c -0.165411,-0.25764 -0.696107,-1.07137 -1.17932,-1.80829 -0.483206,-0.73692 -0.876404,-1.37712 -0.873766,-1.42266 0.0026,-0.0456 0.317462,-0.28573 0.699611,-0.53374 1.847459,-1.19893 2.806072,-2.58943 3.109939,-4.51106 0.04527,-0.28626 0.528121,-5.50988 1.073001,-11.60803 0.544881,-6.09814 1.00318,-11.0988 1.01845,-11.11258 0.05516,-0.0498 5.632632,-0.60205 5.672918,-0.56175 0.03516,0.0352 -1.608256,18.93947 -1.903319,21.8944 -0.193843,1.94126 -0.508045,3.13671 -1.176982,4.47809 -0.649978,1.30338 -1.719092,2.56905 -3.043949,3.60358 -0.642765,0.5019 -2.934182,2.05048 -3.034088,2.05048 -0.03396,0 -0.197084,-0.2108 -0.362495,-0.46844 z m -32.131064,-3.80247 c -3.049293,-0.57209 -4.804063,-2.44105 -5.451065,-5.80576 -0.440601,-2.29134 -0.368033,-5.90712 0.166857,-8.31388 1.210456,-5.44653 4.507203,-9.1309 9.002791,-10.06131 3.565331,-0.73788 5.994061,0.0851 7.164107,2.42746 0.289538,0.57964 0.484953,1.17664 0.408547,1.24811 -0.117411,0.10982 -4.137665,2.36064 -4.216421,2.36064 -0.04421,0 -0.165637,-0.19519 -0.269833,-0.43374 -0.228244,-0.52256 -0.685886,-1.07599 -0.997389,-1.20614 -0.265837,-0.11108 -0.968655,-0.12186 -1.403829,-0.0216 -1.853981,0.42742 -3.296213,2.82064 -3.866001,6.41519 -0.148565,0.93723 -0.210605,3.86877 -0.103789,4.90429 0.27385,2.6548 1.176584,3.95181 2.827114,4.06189 0.637375,0.0425 1.587179,-0.10374 2.377029,-0.36601 0.29004,-0.0963 1.030052,-0.42341 1.644469,-0.72688 0.998204,-0.49303 1.277119,-0.60814 1.277119,-0.52705 0,0.0136 0.297747,0.87833 0.661661,1.92162 0.363912,1.04328 0.647377,1.9341 0.62992,1.97959 -0.04566,0.11897 -1.532808,0.86001 -2.492267,1.2419 -0.931234,0.37065 -2.023901,0.6626 -3.136709,0.83811 -1.054426,0.1663 -3.479942,0.20279 -4.222311,0.0635 z m 13.076524,-1.66756 c -1.275404,-0.09 -2.344734,-0.18949 -2.376288,-0.22104 -0.05102,-0.051 10.078645,-23.58211 10.198573,-23.69117 0.04566,-0.0416 4.814167,-0.55702 4.847194,-0.524 0.04506,0.0451 6.75612,22.4256 6.75612,22.53084 0,0.15319 0.103882,0.13764 -3.018827,0.45194 -1.335917,0.13447 -2.509741,0.25817 -2.608495,0.27489 l -0.179561,0.0304 -0.709168,-2.68331 c -0.390039,-1.47581 -0.721381,-2.69551 -0.736308,-2.71044 -0.01493,-0.0149 -1.500628,0.12555 -3.301563,0.31215 l -3.274421,0.33928 -1.166097,3.01709 -1.166098,3.01709 -0.473073,0.01 c -0.26019,0.006 -1.516584,-0.0637 -2.791988,-0.15368 z m 9.328145,-10.65517 c 0.877888,-0.0845 1.619972,-0.17399 1.64907,-0.19887 0.0291,-0.0248 -0.162919,-0.93333 -0.426702,-2.01876 -0.26379,-1.08544 -0.567289,-2.34046 -0.674441,-2.78895 -0.19183,-0.80286 -0.253276,-0.93396 -0.325297,-0.69399 -0.02004,0.0668 -0.503388,1.35501 -1.074092,2.86268 -1.289809,3.40738 -1.186898,3.07657 -0.94245,3.02955 0.108761,-0.0209 0.916024,-0.10716 1.793912,-0.19166 z m 21.554102,7.46284 c -1.275399,-0.09 -2.344734,-0.18948 -2.376291,-0.22103 -0.05098,-0.051 10.07865,-23.58211 10.198575,-23.69117 0.04566,-0.0416 4.814172,-0.55702 4.847196,-0.524 0.04508,0.0451 6.756122,22.4256 6.756122,22.53083 0,0.1532 0.103884,0.13764 -3.018826,0.45196 -1.335915,0.13446 -2.509741,0.25816 -2.608494,0.27487 l -0.179564,0.0304 -0.709166,-2.68331 c -0.390038,-1.47582 -0.721379,-2.69551 -0.736305,-2.71044 -0.01492,-0.0149 -1.500627,0.12554 -3.30157,0.31215 l -3.274422,0.33928 -1.166097,3.01709 -1.166096,3.01709 -0.47307,0.01 c -0.260186,0.006 -1.516593,-0.0637 -2.791992,-0.15369 z m 9.328149,-10.65517 c 0.877885,-0.0845 1.619969,-0.17398 1.649067,-0.19887 0.0291,-0.0248 -0.162916,-0.93331 -0.426701,-2.01876 -0.263793,-1.08543 -0.56729,-2.34046 -0.674445,-2.78895 -0.191826,-0.80286 -0.253276,-0.93395 -0.325292,-0.69398 -0.02008,0.0668 -0.503389,1.355 -1.074098,2.86268 -1.289808,3.40739 -1.186899,3.07657 -0.94245,3.02955 0.108761,-0.0209 0.916024,-0.10717 1.793919,-0.19167 z m 57.010715,2.88555 c -0.94695,-0.11984 -1.61781,-0.24935 -2.73176,-0.52732 -0.82518,-0.20592 -2.16991,-0.63619 -2.25451,-0.72139 -0.0689,-0.0693 1.46989,-4.54412 1.56264,-4.54412 0.0447,0 0.43507,0.11096 0.86759,0.24658 3.98708,1.25018 6.11278,1.23188 7.33092,-0.0631 0.58261,-0.61936 0.68234,-0.9116 0.91869,-2.69211 0.1129,-0.85061 0.20528,-1.6071 0.20528,-1.68108 0,-0.0829 -0.10966,0.0359 -0.28601,0.31 -0.37236,0.57869 -1.30627,1.49929 -1.83582,1.80965 -1.01739,0.59628 -1.94877,0.82596 -3.35342,0.82695 -2.16441,0.002 -3.61469,-0.67843 -4.75924,-2.23133 -0.79412,-1.07745 -1.30452,-2.4834 -1.61077,-4.43697 -0.159,-1.01438 -0.18043,-4.71278 -0.0334,-5.76006 0.39689,-2.82632 1.18926,-5.09378 2.42676,-6.94442 2.1616,-3.23259 5.32247,-5.01601 9.45187,-5.33289 2.19322,-0.16829 3.83589,0.29573 4.93446,1.39391 0.38121,0.38108 0.53975,0.61659 0.89399,1.3281 0.23682,0.47569 0.41981,0.91795 0.40664,0.98281 -0.0231,0.11398 -4.02775,2.53036 -4.19856,2.53341 -0.0441,7.8e-4 -0.17583,-0.16814 -0.29279,-0.37539 -0.31334,-0.5552 -0.59519,-0.84338 -1.03715,-1.06041 -0.37012,-0.18176 -0.44961,-0.19363 -1.29647,-0.19363 -1.0082,0 -1.52317,0.12645 -2.11666,0.51974 -1.58809,1.05239 -2.7655,3.62258 -3.13182,6.83648 -0.11096,0.97355 -0.11187,3.54827 -0.002,4.40679 0.23547,1.83247 0.87919,3.17133 1.7051,3.54644 0.61925,0.28124 1.49158,0.12509 2.19801,-0.39348 0.78196,-0.57401 1.65699,-1.9665 1.89966,-3.02305 0.0581,-0.25297 0.19795,-1.48371 0.31076,-2.73495 0.11283,-1.25125 0.23714,-2.29478 0.27626,-2.31896 0.11478,-0.071 5.31396,-0.58675 5.43728,-0.53943 0.0823,0.0316 0.10374,0.10448 0.0803,0.27228 -0.0176,0.12605 -0.28277,3.1491 -0.58911,6.71792 -0.30635,3.5688 -0.60485,6.72295 -0.66333,7.00922 -0.51494,2.52028 -2.19871,4.76304 -4.43917,5.91294 -1.3746,0.70549 -2.41642,0.9501 -4.22737,0.99258 -0.84671,0.0198 -1.5063,-0.003 -2.04726,-0.0717 z M 9.2426684,141.88032 c -0.044508,-0.0721 0.7784546,-9.31702 0.8343916,-9.37344 0.07698,-0.0776 2.213246,-0.26903 2.281035,-0.20436 0.04341,0.0414 -0.05061,1.38658 -0.264392,3.78306 -0.182463,2.04534 -0.322078,3.72606 -0.310254,3.73493 0.01183,0.009 0.646084,-0.0511 1.409465,-0.13336 0.763381,-0.0822 1.427002,-0.13632 1.474714,-0.12023 0.04771,0.0161 0.08894,0.14304 0.09162,0.28209 0.0027,0.13905 0.02611,0.30626 0.05205,0.37159 0.03152,0.0793 0.678193,-1.3428 1.948618,-4.28535 1.643019,-3.80555 1.921262,-4.40452 2.04725,-4.40714 0.0802,-0.002 0.520554,-0.0457 0.978583,-0.0979 0.458029,-0.0522 0.851446,-0.0743 0.87426,-0.049 0.08372,0.0926 2.708216,8.91082 2.676592,8.99323 -0.02129,0.0555 -0.437002,0.12734 -1.191368,0.206 -0.637273,0.0665 -1.16681,0.11086 -1.176748,0.0987 -0.0099,-0.0121 -0.136543,-0.47491 -0.281342,-1.02836 -0.144799,-0.55345 -0.281932,-1.02718 -0.304739,-1.05272 -0.05352,-0.0599 -2.439022,0.19514 -2.510954,0.26851 -0.02994,0.0306 -0.252738,0.57081 -0.495106,1.2006 l -0.44067,1.14508 -0.240522,-0.002 c -0.132287,-8.2e-4 -0.59185,-0.0251 -1.021252,-0.0533 -0.680777,-0.0447 -0.780732,-0.0375 -0.780732,0.0562 0,0.0591 -0.03904,0.1216 -0.08675,0.13884 -0.0708,0.0256 -5.3093632,0.5889 -5.4763585,0.5889 -0.027483,0 -0.066811,-0.0273 -0.087398,-0.0606 z m 10.4626266,-5.12016 c 0.16127,-0.0311 0.189892,-0.0651 0.15732,-0.18719 -0.0219,-0.0821 -0.124224,-0.5162 -0.227388,-0.96468 -0.103165,-0.44849 -0.205187,-0.81514 -0.226718,-0.81478 -0.04057,6.9e-4 -0.769439,1.93195 -0.76841,2.03606 5.56e-4,0.0554 0.629952,0.0144 1.065196,-0.0694 z m 78.092086,2.74693 c -1.255227,-0.0688 -2.306505,-0.15046 -2.336185,-0.18154 -0.04074,-0.0426 1.854304,-22.85438 1.902131,-22.89728 0.01541,-0.0138 4.727963,-0.49863 4.736373,-0.48726 0.14272,0.19277 6.66809,11.85862 7.12889,12.7448 l 0.6676,1.28387 0.002,-1.1931 c 0.002,-1.47715 0.67579,-13.90897 0.7583,-13.99147 0.0563,-0.0563 5.41729,0.21234 5.48585,0.27491 0.0173,0.0157 0.0251,0.14463 0.0174,0.28642 -0.0289,0.53213 -1.82409,22.33545 -1.85576,22.53789 l -0.0331,0.21144 -2.34169,0.24472 c -1.67414,0.17496 -2.3644,0.2235 -2.42133,0.17026 -0.15075,-0.141 -6.74577,-11.74919 -7.27151,-12.79893 -0.28954,-0.57811 -0.53668,-1.05111 -0.54918,-1.05111 -0.0125,0 -0.0247,0.648 -0.027,1.44001 -0.003,1.21929 -0.56736,12.08491 -0.68406,13.18568 l -0.0386,0.36434 -0.42875,-0.009 c -0.23581,-0.005 -1.45574,-0.0656 -2.710959,-0.13434 z m 20.960809,-1.9908 c -0.0329,-0.0532 2.02591,-23.48455 2.06714,-23.52663 0.0257,-0.0262 13.98337,-1.4731 14.21367,-1.4734 0.16943,-2.1e-4 0.19067,0.0251 0.18923,0.22529 -0.002,0.38896 -0.4574,4.07351 -0.50898,4.1251 -0.027,0.027 -1.92111,0.243 -4.20914,0.48003 -2.28803,0.23703 -4.19982,0.44421 -4.2484,0.46041 -0.0628,0.0209 -0.15179,0.67986 -0.30781,2.27911 -0.12069,1.23732 -0.20536,2.2639 -0.18813,2.28128 0.0172,0.0174 1.56815,-0.12816 3.44648,-0.32346 1.87834,-0.1953 3.44249,-0.32899 3.47589,-0.29707 0.0628,0.06 -0.35687,4.22744 -0.43456,4.31576 -0.0236,0.0268 -1.5718,0.20774 -3.4405,0.40208 -1.86869,0.19435 -3.40483,0.36056 -3.41361,0.36934 -0.0192,0.0192 -0.5679,5.69755 -0.55241,5.71637 0.006,0.007 1.95924,-0.18911 4.34069,-0.43623 2.38145,-0.24712 4.35241,-0.42478 4.3799,-0.39478 0.088,0.096 0.47911,4.14328 0.40742,4.21609 -0.0363,0.0369 -3.28994,0.40102 -7.23029,0.80923 -3.94033,0.40821 -7.34121,0.76185 -7.55748,0.78587 -0.21626,0.024 -0.40937,0.0175 -0.42911,-0.0143 z m 53.80215,-3.05562 c -2.41729,-2.50171 -4.4613,-5.14527 -5.85435,-7.57153 -0.29343,-0.51105 -0.84528,-1.55215 -1.22635,-2.31354 l -0.69283,-1.38436 -0.36099,0.0486 c -0.19853,0.0267 -0.365,0.0529 -0.36993,0.0581 -0.005,0.005 -0.20267,2.1799 -0.43944,4.83261 -0.23678,2.65272 -0.43575,4.82598 -0.44215,4.82949 -0.088,0.0481 -5.64225,0.56703 -5.678,0.53046 -0.0459,-0.047 1.99126,-23.60306 2.0459,-23.65771 0.0134,-0.0134 0.86468,-0.0582 1.89179,-0.0997 1.73698,-0.0702 1.93293,-0.0914 2.80434,-0.30424 1.51189,-0.36928 2.4222,-0.47929 3.99041,-0.48225 1.78523,-0.003 2.50598,0.13361 3.71281,0.70558 0.40071,0.18993 0.64899,0.37614 1.07893,0.80923 0.66617,0.67108 0.99932,1.26458 1.26089,2.24625 0.16262,0.6103 0.18023,0.80036 0.18154,1.95972 0.002,1.16364 -0.0153,1.34608 -0.17718,1.94827 -0.38089,1.41667 -0.92154,2.37815 -1.92053,3.41543 -0.64474,0.66944 -1.23584,1.13386 -2.08916,1.64139 l -0.55827,0.33206 0.32383,0.61676 c 1.26573,2.41071 3.67537,5.49216 6.80988,8.70848 0.58208,0.59728 1.05833,1.1209 1.05833,1.16362 0,0.0427 -0.98164,0.73257 -2.18143,1.53303 l -2.18142,1.45537 z m -7.28102,-15.52068 c 2.17323,-0.39506 3.35754,-1.74026 3.2423,-3.68276 -0.0867,-1.46117 -0.71299,-2.16835 -1.98351,-2.23963 -0.48323,-0.0271 -1.50367,0.0671 -1.58272,0.14618 -0.0326,0.0326 -0.50448,5.32087 -0.50735,5.68482 -0.002,0.2259 0.0562,0.23228 0.83128,0.0914 z m 14.23257,12.13514 c -1.2754,-0.09 -2.34473,-0.18948 -2.37628,-0.22103 -0.051,-0.051 10.07864,-23.58212 10.19857,-23.69117 0.0457,-0.0416 4.81417,-0.55703 4.84719,-0.52401 0.0451,0.0451 6.75612,22.42561 6.75612,22.53084 0,0.1532 0.10389,0.13764 -3.01882,0.45196 -1.33592,0.13446 -2.50974,0.25816 -2.6085,0.27487 l -0.17956,0.0304 -0.70917,-2.68331 c -0.39003,-1.47582 -0.72138,-2.69551 -0.7363,-2.71044 -0.0149,-0.0149 -1.50064,0.12554 -3.30157,0.31215 l -3.27442,0.33928 -1.1661,3.01709 -1.16609,3.01709 -0.47308,0.01 c -0.26018,0.006 -1.51658,-0.0637 -2.79199,-0.15369 z m 9.32815,-10.65517 c 0.87789,-0.0845 1.61997,-0.17398 1.64907,-0.19887 0.0291,-0.0248 -0.16292,-0.93332 -0.4267,-2.01876 -0.2638,-1.08543 -0.56729,-2.34046 -0.67444,-2.78895 -0.19184,-0.80286 -0.25328,-0.93395 -0.3253,-0.69398 -0.0201,0.0668 -0.50339,1.355 -1.07409,2.86268 -1.28981,3.40738 -1.1869,3.07657 -0.94245,3.02955 0.10876,-0.0209 0.91602,-0.10717 1.79391,-0.19167 z m -170.344537,8.82426 c -0.684463,-0.1444 -1.303781,-0.3209 -1.442068,-0.41095 -0.07752,-0.0505 -0.03457,-0.24383 0.231299,-1.0416 0.179564,-0.53879 0.362928,-0.97922 0.407475,-0.97872 0.04455,6.9e-4 0.283983,0.0648 0.532082,0.14285 1.491834,0.46947 2.41079,0.44325 2.892756,-0.0825 0.20959,-0.22865 0.281379,-0.44771 0.339281,-1.03533 l 0.04986,-0.50597 -0.260449,0.28829 c -0.145029,0.16052 -0.464086,0.38853 -0.719961,0.5145 -0.434458,0.21388 -0.501209,0.22622 -1.224351,0.22619 -0.93726,-2e-5 -1.310701,-0.13999 -1.824224,-0.68371 -0.617037,-0.65334 -0.903384,-1.54034 -0.969343,-3.00269 -0.06844,-1.51746 0.193802,-2.83751 0.797141,-4.01251 0.457176,-0.89035 1.331124,-1.76828 2.168462,-2.17833 0.86927,-0.42569 1.332869,-0.52844 2.394242,-0.53063 0.80486,-0.002 0.941761,0.0161 1.269134,0.16397 0.43373,0.19599 0.83957,0.62948 1.039319,1.11013 l 0.142079,0.34188 -0.900313,0.527 c -0.495173,0.28985 -0.926886,0.52701 -0.959362,0.52701 -0.03247,0 -0.124548,-0.10599 -0.2046,-0.23551 -0.172295,-0.27878 -0.515044,-0.45848 -0.874482,-0.45848 -1.194335,0 -1.998506,1.20422 -2.180497,3.26523 -0.118747,1.34478 0.114143,2.65104 0.531129,2.97904 0.402621,0.3167 0.976413,0.12573 1.415279,-0.47103 0.310099,-0.42167 0.408747,-0.79008 0.511304,-1.90953 0.05184,-0.56587 0.106883,-1.04148 0.12231,-1.05691 0.05487,-0.0548 2.341422,-0.26492 2.387058,-0.21928 0.02555,0.0256 -0.06594,1.35099 -0.203314,2.94542 -0.275141,3.1934 -0.334824,3.50875 -0.799148,4.22253 -0.525326,0.80755 -1.324472,1.37269 -2.24941,1.59076 -0.584412,0.13779 -1.68533,0.12365 -2.418685,-0.0311 z m 13.227103,-3.55805 c -1.151286,-1.21702 -2.047196,-2.48701 -2.770509,-3.92733 -0.186173,-0.37072 -0.286834,-0.5015 -0.37324,-0.48495 -0.103218,0.0198 -0.14068,0.27667 -0.29356,2.013 -0.09638,1.09469 -0.190072,2.00324 -0.208195,2.019 -0.07419,0.0646 -2.377785,0.26461 -2.429568,0.21099 -0.03086,-0.032 0.137035,-2.29099 0.373096,-5.02007 l 0.429202,-4.96198 0.762461,-0.0544 c 0.419353,-0.0299 1.074753,-0.11401 1.456443,-0.18685 1.363518,-0.2602 2.222931,-0.23813 2.952734,0.0758 0.451609,0.19428 0.913819,0.69808 1.078212,1.17523 0.187621,0.54457 0.177899,1.62574 -0.01942,2.1595 -0.257551,0.6967 -0.840606,1.40308 -1.461139,1.77019 -0.162218,0.096 -0.294942,0.21107 -0.294942,0.25576 0,0.12659 0.492687,0.93881 0.919893,1.51647 0.477986,0.64634 1.055361,1.31982 1.823164,2.12665 0.323434,0.33988 0.58751,0.66072 0.586836,0.71299 -9.84e-4,0.0791 -0.547744,0.4697 -1.665477,1.1899 l -0.191338,0.12328 z m -2.327723,-6.51913 c 0.621256,-0.26653 0.865448,-0.67168 0.821437,-1.36285 -0.02548,-0.40018 -0.05261,-0.4701 -0.251332,-0.64765 -0.196244,-0.17535 -0.275841,-0.19904 -0.668509,-0.19904 h -0.445742 l -0.03771,0.29494 c -0.03765,0.29459 -0.178997,1.9192 -0.178997,2.05746 0,0.096 0.362778,0.028 0.760845,-0.14286 z m 7.222921,5.21079 c -0.768678,-0.13622 -1.440558,-0.56692 -1.775202,-1.13794 -0.220441,-0.37616 -0.448505,-1.27125 -0.448505,-1.76028 0,-0.34549 0.548693,-6.75816 0.581109,-6.79152 0.0075,-0.007 0.55445,-0.0721 1.215534,-0.14295 1.016416,-0.10907 1.207682,-0.1141 1.238958,-0.0326 0.03062,0.0798 -0.416993,5.64273 -0.497935,6.1883 -0.03871,0.26092 0.08757,1.02901 0.207219,1.26039 0.246464,0.47661 0.97495,0.62942 1.523111,0.31949 0.341386,-0.19302 0.668875,-0.71614 0.823503,-1.31546 0.06156,-0.23857 0.242787,-1.87499 0.402742,-3.63649 l 0.290826,-3.20274 0.802927,-0.0878 c 0.441609,-0.0483 1.005367,-0.0904 1.252796,-0.0937 l 0.449872,-0.006 -0.01972,0.27759 c -0.09772,1.3755 -0.515694,6.00324 -0.576656,6.38465 -0.370967,2.32096 -1.954418,3.67131 -4.467264,3.80966 -0.343521,0.0189 -0.795013,0.004 -1.003314,-0.0327 z m 7.259737,-0.81038 c -0.01777,-0.0288 0.160368,-2.28507 0.395866,-5.01403 l 0.42818,-4.96175 0.762461,-0.0544 c 0.419353,-0.0299 1.074753,-0.11402 1.456444,-0.18686 1.406584,-0.26842 2.291009,-0.23665 2.999008,0.10774 0.44116,0.2146 0.872523,0.68852 1.02516,1.12631 0.173165,0.49668 0.211129,1.48207 0.07873,2.0434 -0.395913,1.67848 -1.74068,2.77669 -3.721088,3.03885 -0.324374,0.043 -0.600788,0.0891 -0.614253,0.10255 -0.01347,0.0134 -0.09266,0.82134 -0.175993,1.79528 -0.08333,0.97395 -0.166053,1.78333 -0.183828,1.79864 -0.02928,0.0252 -2.139461,0.25716 -2.335714,0.25675 -0.04546,0 -0.09719,-0.0237 -0.114968,-0.0525 z m 3.768405,-5.98481 c 0.550873,-0.28347 0.836008,-0.78071 0.836008,-1.45792 0,-0.81492 -0.252273,-1.11038 -0.948067,-1.11038 h -0.431395 l -0.03771,0.29494 c -0.05988,0.46841 -0.178997,1.9594 -0.178997,2.24042 v 0.25602 l 0.257015,-0.0482 c 0.141359,-0.0266 0.367771,-0.10521 0.503139,-0.17486 z m 5.867385,5.04351 c -0.808802,-0.20783 -1.382054,-0.67636 -1.776542,-1.45199 -0.296299,-0.58259 -0.410759,-1.14695 -0.454061,-2.23881 -0.06364,-1.60468 0.241408,-3.02984 0.898085,-4.19574 0.343266,-0.60947 1.159986,-1.45666 1.730198,-1.79478 1.315785,-0.78021 3.291347,-0.93803 4.435475,-0.35434 0.672997,0.34334 1.20118,1.1571 1.40923,2.17118 0.146541,0.71427 0.147895,2.29829 0.0027,3.1282 -0.424246,2.42452 -1.806161,4.10918 -3.816123,4.65214 -0.559371,0.15112 -1.977165,0.20022 -2.428941,0.0841 z m 2.330062,-2.0998 c 0.278849,-0.14036 0.687348,-0.63366 0.873739,-1.05512 0.344,-0.77784 0.464614,-1.47836 0.468667,-2.72193 0.004,-1.22736 -0.05606,-1.58183 -0.342758,-2.02273 -0.385064,-0.59217 -1.29321,-0.60731 -1.869368,-0.0311 -0.351655,0.35165 -0.608055,0.85742 -0.81253,1.60279 -0.130128,0.47435 -0.153009,0.7421 -0.157166,1.83905 -0.0052,1.38453 0.06293,1.75981 0.394439,2.1714 0.293048,0.36385 0.956122,0.46375 1.444977,0.21769 z"
       id="path21"
       inkscape:connector-curvature="0" />
  </g>
</svg>
